<mxfile host="app.diagrams.net" modified="2023-09-30T12:05:40.149Z" agent="Mozilla/5.0 (Windows NT 10.0; Win64; x64) AppleWebKit/537.36 (KHTML, like Gecko) Chrome/117.0.0.0 Safari/537.36" version="21.6.6" etag="v-a-fn5mok9GNIzdvh4d" type="github">
  <diagram name="1 oldal" id="dsPPdg9NxEzFtqGpDTDF">
    <mxGraphModel>
      <root>
        <mxCell id="0" />
        <mxCell id="1" parent="0" />
      </root>
    </mxGraphModel>
  </diagram>
</mxfile>
